<?xml version="1.0" encoding="UTF-8" standalone="no"?>
<svg
   class="svg-icon"
   style="width: 1em; height: 1em;vertical-align: middle;fill: currentColor;overflow: hidden;"
   viewBox="0 0 1024 1024"
   version="1.1"
   id="svg12"
   sodipodi:docname="grabhand.svg"
   inkscape:version="1.2.2 (732a01da63, 2022-12-09)"
   inkscape:export-filename="grabhand.png"
   inkscape:export-xdpi="15"
   inkscape:export-ydpi="15"
   xmlns:inkscape="http://www.inkscape.org/namespaces/inkscape"
   xmlns:sodipodi="http://sodipodi.sourceforge.net/DTD/sodipodi-0.dtd"
   xmlns:xlink="http://www.w3.org/1999/xlink"
   xmlns="http://www.w3.org/2000/svg"
   xmlns:svg="http://www.w3.org/2000/svg">
  <defs
     id="defs16" />
  <sodipodi:namedview
     id="namedview14"
     pagecolor="#ffffff"
     bordercolor="#000000"
     borderopacity="0.25"
     inkscape:showpageshadow="2"
     inkscape:pageopacity="0.0"
     inkscape:pagecheckerboard="0"
     inkscape:deskcolor="#d1d1d1"
     showgrid="false"
     inkscape:zoom="0.48860443"
     inkscape:cx="701.99937"
     inkscape:cy="519.84793"
     inkscape:window-width="1920"
     inkscape:window-height="1106"
     inkscape:window-x="-11"
     inkscape:window-y="-11"
     inkscape:window-maximized="1"
     inkscape:current-layer="svg12" />
  <path
     d="m 191.94522,381.97189 -57.71356,61.98009 c -72.949334,78.34215 -71.2895,200.3268 4.92326,275.49802 l 189.00765,186.42469 c 45.72765,45.10272 109.49641,71.9144 176.10537,71.45612 L 634.479,979.4627 c 72.66431,-0.49983 145.07867,-37.33197 208.22249,-101.35068 57.13014,-57.92171 89.91385,-133.84285 89.33063,-218.61789 l 5.26376,-115.09349 1.17377,-269.48433 c 2.75686,-39.38068 -33.82526,-75.46286 -73.16428,-72.16439 -36.33215,0.24997 -72.53933,18.66602 -75.25455,64.10204 l 0.16665,24.22146 c 0.0833,12.11071 -8.93723,21.25624 -21.04794,21.33957 -12.11073,0.0833 -21.25625,-8.93723 -21.33957,-21.04795 l -0.16665,-24.22144 -0.0417,-6.05536 2.46525,-81.76818 c 2.75689,-39.38067 -33.82523,-75.46286 -73.16424,-72.16439 -42.38753,0.29163 -75.46286,33.82525 -75.17123,76.21277 l -5.43044,90.87205 c 0.0833,12.11072 -8.93723,21.25625 -21.04794,21.33957 -12.11073,0.0833 -21.25625,-8.93721 -21.33957,-21.04794 l 2.00698,-148.37714 C 555.6905,89.824836 519.10836,53.742641 482.77621,53.992617 440.38869,54.284229 407.31335,87.817854 407.60499,130.20536 l 4.0067,142.28012 c 0.0833,12.11072 -8.93721,21.25626 -21.04794,21.33958 -12.11073,0.0833 -21.25624,-8.93724 -21.33957,-21.04795 l -3.46512,-63.56044 c -0.29163,-42.38753 -33.82524,-75.46287 -76.21277,-75.17123 -42.38751,0.29162 -75.46285,33.82525 -75.17122,76.21275 l -1.00711,293.70578 c -7.18698,-42.0481 -21.055,-89.51575 -21.42274,-121.99208 z"
     id="path409"
     style="overflow:hidden;fill:#ffffff;stroke-width:1.25446"
     sodipodi:nodetypes="csssccscccccsssccccccsccsccsccsccc" />
  <path
     d="M 304.89296,920.41989 121.97118,739.99791 C 30.510281,649.78693 29.502285,503.27735 116.80322,414.76681 l 66.93075,-67.85809 -0.88705,-128.92842 c -0.44351,-64.46422 49.02701,-114.62019 113.49123,-115.06371 29.30192,-0.2016 52.8241,11.35789 73.43623,25.86773 5.45718,-58.644143 54.96804,-102.939739 113.57187,-103.342944 49.7931,-3.272904 96.9584,37.427223 109.00172,84.229634 20.37023,-20.652449 46.68147,-29.624465 75.9834,-29.826067 58.60382,-0.403195 111.71013,51.977367 115.0637,113.491217 20.41053,-14.79206 43.81175,-20.81373 73.11366,-21.01533 58.60382,-0.4032 111.7101,51.97737 115.0637,113.49122 l -3.2799,375.10485 c 0.6048,87.90574 -33.95268,176.0534 -97.9734,240.96112 -69.84075,70.8085 -148.69384,109.44528 -230.73921,110.00978 l -126.0184,-2.0634 C 428.52549,1001.6185 357.99929,972.80046 304.89296,920.41989 Z M 184.13716,405.51256 146.30675,443.86713 C 73.555958,517.62591 77.312698,637.7436 151.07149,710.4944 l 182.92179,180.42192 c 44.25528,43.65054 105.97073,69.59886 170.43495,69.15532 l 126.0184,2.06336 c 70.3246,-0.48384 140.40727,-36.12995 201.51793,-98.08737 55.29061,-56.05668 87.01871,-129.53322 86.45423,-211.57859 l 5.09432,-111.3876 1.13598,-260.8072 c 2.66808,-38.11265 -32.73613,-73.03303 -70.80847,-69.84076 -35.1623,0.24192 -70.20364,18.06498 -72.83143,62.03802 l 0.16128,23.44153 c 0.0806,11.72077 -8.64945,20.57182 -20.37022,20.65247 -11.72077,0.0806 -20.57181,-8.64946 -20.65245,-20.37023 l -0.16129,-23.44154 -0.0403,-5.86038 2.38588,-79.13533 c 2.66811,-38.11265 -32.7361,-73.03302 -70.80843,-69.84076 -41.02268,0.28225 -73.03302,32.73611 -72.75079,73.75879 l -5.25559,87.94607 c 0.0806,11.72077 -8.64945,20.57182 -20.37022,20.65246 -11.72077,0.0806 -20.57181,-8.64945 -20.65245,-20.37022 l 1.94235,-143.59954 c -0.24192,-35.1623 -35.64614,-70.082678 -70.80843,-69.840752 -41.02268,0.282232 -73.03304,32.736096 -72.7508,73.758772 l 3.87771,137.69884 c 0.0806,11.72077 -8.64944,20.57182 -20.37021,20.65246 -11.72078,0.0806 -20.57183,-8.64946 -20.65248,-20.37022 l -3.35354,-61.51386 c -0.28223,-41.02269 -32.73611,-73.03302 -73.75878,-72.75079 -41.02269,0.28223 -73.03304,32.73611 -72.7508,73.75879 l -0.97467,284.24873 c 0.0806,11.72078 -8.64946,20.57182 -20.37023,20.65246 -11.72077,0.0806 -20.57182,-8.64945 -20.65246,-20.37022 z"
     fill=""
     id="path10"
     style="stroke-width:17;stroke:#280b0b;stroke-dasharray:none" />
  <path
     style="fill:#ffffff;stroke:#2b0000;stroke-width:60;stroke-linecap:round;stroke-dasharray:none"
     d="M 460.80717,461.46405 V 769.04136"
     id="path562"
     sodipodi:nodetypes="cc" />
  <use
     x="0"
     y="0"
     xlink:href="#path562"
     id="use2699"
     transform="translate(143.98999)"
     style="stroke-width:1.00501;stroke-dasharray:none" />
  <use
     x="0"
     y="0"
     xlink:href="#path562"
     id="use2701"
     transform="translate(276.9578)"
     style="stroke-width:1.00501;stroke-dasharray:none" />
</svg>
